<svg width="662" height="662" viewBox="0 0 662 662" fill="none" xmlns="http://www.w3.org/2000/svg">
<g clip-path="url(#clip0_84_22)">
<path d="M225.231 93.8977C226.311 82.4311 240.003 77.1016 248.551 84.8203L362.029 187.287C365.4 190.331 370.038 191.551 374.47 190.559L523.672 157.161C534.912 154.645 544.211 166.02 539.512 176.535L477.127 316.123C475.274 320.27 475.547 325.057 477.86 328.966L555.729 460.545C561.595 470.457 553.65 482.817 542.198 481.597L390.164 465.4C385.647 464.919 381.179 466.658 378.176 470.066L277.099 584.784C269.486 593.426 255.276 589.689 252.897 578.42L221.32 428.822C220.382 424.378 217.347 420.665 213.178 418.863L72.8401 358.183C62.2687 353.612 61.4311 338.943 71.4135 333.199L203.932 256.939C207.869 254.674 210.462 250.64 210.888 246.118L225.231 93.8977Z" fill="#FF004D"/>
<path d="M429.329 125.274C491.406 133.751 367.09 179.409 299.47 210.681C240.349 238.022 42.1246 271.693 105.272 219.796C176.687 161.104 260.847 150.826 260.847 150.826C260.847 150.826 329.951 111.704 429.329 125.274Z" stroke="#F189FF" stroke-width="32"/>
<path d="M226.205 131.071L220.008 193.146" stroke="#FF004C" stroke-width="8"/>
<path d="M278.525 115.802L324.425 157.997" stroke="#FF004C" stroke-width="5"/>
<rect x="222.952" y="144.65" width="56.491" height="69.3224" transform="rotate(-48.3089 222.952 144.65)" fill="#FF004C"/>
<rect x="223.259" y="120.839" width="47.422" height="72.8701" transform="rotate(0.722899 223.259 120.839)" fill="#FF004C"/>
</g>
<defs>
<clipPath id="clip0_84_22">
<rect width="662" height="662" fill="white"/>
</clipPath>
</defs>
</svg>
